<?xml version="1.0" encoding="UTF-8"?><svg id="Layer_2" xmlns="http://www.w3.org/2000/svg" viewBox="0 0 315.2246 74.1201"><g id="Components"><g id="b8bd11d4-31e2-4198-8ba1-7b048d6ae31d_1"><path d="M137.1741,44.8286c-.0208-.4102-.0537-.8169-.0928-1.2222-.0044-.0439-.0056-.0889-.0103-.1328-1.3701-13.5029-12.7971-24.0669-26.657-24.0669-3.0269,0-5.9346.5112-8.6501,1.4395v-10.3364h-.0061c-.0671-4.9141-4.0803-8.8926-9.0095-8.8926s-8.9421,3.9785-9.0093,8.8926h-.0063v17.9077l-.1135,17.7842c0,.9614.0559,1.9097.1553,2.8452l-.0417,14.939c0,4.9707,4.0447,9.0156,9.0156,9.0156,2.437,0,4.6477-.9761,6.272-2.5527,3.4597,1.6309,7.3206,2.5479,11.3938,2.5479,13.8599,0,25.2869-10.564,26.657-24.0669.0061-.0605.0081-.1221.0139-.1821.0369-.3892.0693-.7793.0891-1.1733.0027-.0513.0017-.1035.0039-.1553.0183-.4038.031-.8091.031-1.2173,0-.4297-.0125-.8564-.0325-1.2808-.0015-.0308-.0007-.0615-.0024-.0923ZM110.5327,62.0098c-8.7168,0-15.8083-7.0918-15.8083-15.8081s7.0916-15.8086,15.8083-15.8086,15.8081,7.0918,15.8081,15.8086-7.0916,15.8081-15.8081,15.8081Z" style="fill:#1b2437;"/><path d="M37.0601,0c-.0103,0-.0205.001-.0308.001s-.0205-.001-.0308-.001h0C16.5649,0,0,16.5645,0,36.9985c0,.0103.001.0205.001.0308s-.001.02-.001.0308c0,20.4429,16.6172,37.0601,37.0601,37.0601,5.7114,0,11.1228-1.2993,15.958-3.6143-.0195-.041-.04-.0806-.0588-.1221-.7769-1.6841-1.2224-3.5513-1.2224-5.5244,0-2.5859.7563-4.9941,2.0425-7.0356,1.0613-1.6841,2.4873-3.1104,4.1716-4.1714,2.0415-1.2861,4.4495-2.0425,7.0354-2.0425,1.9509,0,3.7983.4346,5.4678,1.1948.041.019.0808.0396.1216.0586,2.2695-4.7959,3.5444-10.1523,3.5444-15.8032C74.1201,16.6167,57.5032,0,37.0601,0ZM58.0261,45.7607c-1.4575-3.1113-4.6082-5.271-8.2708-5.271-5.0474,0-9.1387,4.0913-9.1387,9.1387,0,3.6943,2.1965,6.8691,5.3511,8.3096-2.7544,1.1841-5.7861,1.8428-8.9692,1.8428-12.5625,0-22.7827-10.2202-22.7827-22.7822s10.2202-22.7827,22.7827-22.7827,22.7825,10.2202,22.7825,22.7827c0,3.1035-.626,6.063-1.7549,8.7622Z" style="fill:#1b2437;"/><path d="M195.6799,41.8789c-.0703-.4189-.1521-.834-.2415-1.2461-.0137-.063-.0305-.125-.0447-.188-.0811-.3589-.1677-.7158-.2632-1.0698-.0085-.0317-.0183-.063-.0271-.0952-.1062-.3887-.2209-.7734-.344-1.1548h-.0002c-3.4597-10.7192-13.5095-18.4761-25.3799-18.4761-13.2173,0-24.1829,9.6147-26.3005,22.23-.2429,1.4468-.3757,2.9307-.3757,4.4463s.1328,2.9995.3757,4.4458c2.1177,12.6157,13.0833,22.2305,26.3005,22.2305h2.2109c7.8093,0,14.8247-3.3867,19.6631-8.771,3.1191-3.4712.5635-9.0132-4.103-9.0132-1.5261,0-2.9841.6392-4.0071,1.772-2.8516,3.1563-6.9739,5.144-11.553,5.144h-2.2109c-6.989,0-12.9121-4.5679-14.9934-10.8682h36.2366c2.8345,0,5.1594-2.1709,5.4092-4.9399.0078-.0845.0093-.1709.0129-.2563.0034-.0796.012-.1572.012-.2378,0-.2451-.022-.4849-.0532-.7212-.0513-1.0933-.1462-2.1753-.3235-3.231ZM154.7458,40.397c2.3506-5.7842,8.0151-9.8799,14.6335-9.8799,6.0195,0,11.2463,3.3911,13.9136,8.3555.2642.4927.5034,1,.7183,1.5205.0005.001.0012.0024.0017.0039h-29.2671Z" style="fill:#1b2437;"/><path d="M315.2246,42.5601l-.019.0459-.0947-18.4771v-13.4961h-.0063c-.0669-4.9136-4.0801-8.8921-9.0093-8.8921s-8.9424,3.9785-9.0093,8.8921h-.0063v10.3369c-2.7153-.9282-5.623-1.4395-8.6499-1.4395-13.8599,0-25.2871,10.564-26.6572,24.0669-.0044.0439-.0059.0889-.0103.1328-.0391.4053-.072.812-.0928,1.2222-.0015.0308-.001.0615-.0024.0923-.02.4243-.0322.8511-.0322,1.2808,0,.4082.0127.8135.0308,1.2173.0024.0518.0012.104.0039.1553.02.394.0522.7842.0894,1.1733.0054.0601.0073.1216.0137.1821,1.3701,13.5029,12.7974,24.0669,26.6572,24.0669,4.0732,0,7.9341-.917,11.3936-2.5479,1.6243,1.5767,3.835,2.5527,6.272,2.5527,4.9709,0,9.0156-4.0449,9.0156-9.0156l.0894-16.9263c.0088-.2856.0244-.5698.0244-.8579l-.0098-1.9106.0098-1.8545ZM288.311,62.1333c-8.7168,0-15.8081-7.0918-15.8081-15.8081s7.0913-15.8086,15.8081-15.8086,15.8081,7.0918,15.8081,15.8086-7.0916,15.8081-15.8081,15.8081Z" style="fill:#1b2437;"/><path d="M255.0271,28.541c0-4.9712-4.0447-9.0156-9.0156-9.0156-2.437,0-4.6477.9761-6.272,2.5527-3.4597-1.6313-7.3206-2.5479-11.3938-2.5479-13.8599,0-25.2869,10.564-26.657,24.0669-.0046.0439-.0059.0889-.0103.1328-.0391.4053-.072.812-.0928,1.2222-.0017.0308-.001.0615-.0024.0923-.02.4243-.0325.8511-.0325,1.2808,0,.4082.0127.8135.031,1.2173.0022.0518.0012.104.0039.1553.0198.394.0522.7842.0891,1.1733.0059.0601.0078.1216.0139.1821,1.3701,13.5029,12.7974,24.0669,26.657,24.0669,4.0732,0,7.9341-.917,11.3938-2.5479,1.6243,1.5767,3.835,2.5527,6.272,2.5527,4.9709,0,9.0156-4.0449,9.0156-9.0156l.0991-16.9087-.0107.0098c.0098-.2949.0251-.5884.0251-.8853l-.1135-17.7842ZM228.2271,62.1333c-8.7166,0-15.8081-7.0918-15.8081-15.8081s7.0916-15.8086,15.8083-15.8086,15.8081,7.0918,15.8081,15.8086-7.0916,15.8081-15.8083,15.8081Z" style="fill:#1b2437;"/><path d="M68.6158,56.4738c-.0422-.0183-.0841-.0371-.1265-.0547-1.0791-.4484-2.2614-.6983-3.5028-.6983h0c-5.0471,0-9.1387,4.0916-9.1387,9.1387,0,1.2551.2539,2.4509.7118,3.5396.0178.0424.0395.0825.0579.1245,1.4127,3.2217,4.6258,5.4746,8.369,5.4746h0c5.0471,0,9.1387-4.0916,9.1387-9.1387,0-3.7569-2.2687-6.9811-5.5094-8.3857Z" style="fill:#70b6ca;"/></g></g></svg>