<?xml version="1.0" encoding="UTF-8"?><svg id="Layer_2" xmlns="http://www.w3.org/2000/svg" viewBox="0 0 74.1251 74.1201"><g id="Components"><g id="_0c8d5871-45da-4362-9506-43c0a404d3fa_1"><path d="M37.0601,0c-.0103,0-.0205.001-.0308.001s-.0205-.001-.0308-.001h0C16.5649,0,0,16.5645,0,36.9985c0,.0103.001.0205.001.0308s-.001.02-.001.0308c0,20.4429,16.6172,37.0601,37.0601,37.0601,5.7114,0,11.1228-1.2993,15.958-3.6143-.0195-.041-.04-.0806-.0588-.1221-.7769-1.6841-1.2224-3.5513-1.2224-5.5244,0-2.5859.7563-4.9941,2.0425-7.0356,1.0613-1.6841,2.4873-3.1104,4.1716-4.1714,2.0415-1.2861,4.4495-2.0425,7.0354-2.0425,1.9509,0,3.7983.4346,5.4678,1.1948.041.019.0808.0396.1216.0586,2.2695-4.7959,3.5444-10.1523,3.5444-15.8032C74.1201,16.6167,57.5032,0,37.0601,0ZM58.0261,45.7607c-1.4575-3.1113-4.6082-5.271-8.2708-5.271-5.0474,0-9.1387,4.0913-9.1387,9.1387,0,3.6943,2.1965,6.8691,5.3511,8.3096-2.7544,1.1841-5.7861,1.8428-8.9692,1.8428-12.5625,0-22.7827-10.2202-22.7827-22.7822s10.2202-22.7827,22.7827-22.7827,22.7825,10.2202,22.7825,22.7827c0,3.1035-.626,6.063-1.7549,8.7622Z" style="fill:#1b2437;"/><path d="M68.6158,56.4738c-.0422-.0183-.0841-.0371-.1265-.0547-1.0791-.4484-2.2614-.6983-3.5028-.6983h0c-5.0471,0-9.1387,4.0916-9.1387,9.1387,0,1.2551.2539,2.4509.7118,3.5396.0178.0424.0395.0825.0579.1245,1.4127,3.2217,4.6258,5.4746,8.369,5.4746h0c5.0471,0,9.1387-4.0916,9.1387-9.1387,0-3.7569-2.2687-6.9811-5.5094-8.3857Z" style="fill:#4fbb76;"/></g></g></svg>